{"title":"Howard The Duck Special Edition (2009) DVDRip x264 AC3 5.1","uid":7051294,"size":2566941214,"categoryP":"video","categoryS":"movies","magnet":"?xt=urn:btih:36cfc4ac42133115462f6b1a4b98ec498c9c60c6&amp;dn=Howard+The+Duck+Special+Edition+%282009%29+DVDRip+x264+AC3+5.1&amp;tr=udp%3A%2F%2Ftracker.openbittorrent.com%3A80&amp;tr=udp%3A%2F%2Fopen.demonii.com%3A1337&amp;tr=udp%3A%2F%2Ftracker.coppersurfer.tk%3A6969&amp;tr=udp%3A%2F%2Fexodus.desync.com%3A6969","seeders":1,"leechers":0,"uploader":"nelwyn","files":-1,"time":1329965305,"description":"Here's a rip I made from the DVD. Encoded with very high settings for x264. Audio is original AC3 untouched. English, French and Spanish subtitles included.\n\nAll extras from the DVD are included as well.\n\n\nMedia Info:\n\nVideo\nID : 1\nFormat : AVC\nFormat/Info : Advanced Video Codec\nFormat profile : &lt;a class=&quot;__cf_email__&quot; href=&quot;/cdn-cgi/l/email-protection&quot; data-cfemail=&quot;feb6979996beb2cdd0ce&quot;&gt;[email&amp;#160;protected]&lt;/a&gt;&lt;script cf-hash='f9e31' type=&quot;text/javascript&quot;&gt;\n/* &lt;![CDATA[ */!function(){try{var t=&quot;currentScript&quot;in document?document.currentScript:function(){for(var t=document.getElementsByTagName(&quot;script&quot;),e=t.length;e--;)if(t[e].getAttribute(&quot;cf-hash&quot;))return t[e]}();if(t&amp;&amp;t.previousSibling){var e,r,n,i,c=t.previousSibling,a=c.getAttribute(&quot;data-cfemail&quot;);if(a){for(e=&quot;&quot;,r=parseInt(a.substr(0,2),16),n=2;a.length-n;n+=2)i=parseInt(a.substr(n,2),16)^r,e+=String.fromCharCode(i);e=document.createTextNode(e),c.parentNode.replaceChild(e,c)}}}catch(u){}}();/* ]]&gt; */&lt;/script&gt;\nFormat settings, CABAC : Yes\nFormat settings, ReFrames : 5 frames\nCodec ID : V_MPEG4/ISO/AVC\nDuration : 1h 50mn\nBit rate : 1 907 Kbps\nWidth : 720 pixels\nHeight : 464 pixels\nDisplay aspect ratio : 1.853\nOriginal display aspect ratio : 1.855\nFrame rate mode : Variable\nFrame rate : 23.976 fps\nColor space : YUV\nChroma subsampling : 4:2:0\nBit depth : 8 bits\nScan type : Progressive\nBits/(Pixel*Frame) : 0.238\nStream size : 1.47 GiB (79%)\nWriting library : x264 core 112\nEncoding settings : cabac=1 / ref=5 / deblock=1:1:1 / analyse=0x3:0x113 / me=tesa / subme=10 / psy=1 / psy_rd=2.00:0.10 / mixed_ref=1 / me_range=32 / chroma_me=1 / trellis=1 / 8x8dct=1 / cqm=0 / deadzone=21,11 / fast_pskip=1 / chroma_qp_offset=-3 / threads=12 / sliced_threads=0 / nr=0 / decimate=1 / interlaced=0 / constrained_intra=0 / bframes=5 / b_pyramid=2 / b_adapt=2 / b_bias=0 / direct=1 / weightb=1 / open_gop=0 / weightp=2 / keyint=240 / keyint_min=23 / scenecut=40 / intra_refresh=0 / rc_lookahead=50 / rc=crf / mbtree=1 / crf=19.0 / qcomp=0.60 / qpmin=3 / qpmax=51 / qpstep=4 / ip_ratio=1.40 / aq=1:1.00\nLanguage : English\nDefault : Yes\nForced : No\n\n\nAudio\nID : 2\nFormat : AC-3\nFormat/Info : Audio Coding 3\nMode extension : CM (complete main)\nCodec ID : A_AC3\nDuration : 1h 50mn\nBit rate mode : Constant\nBit rate : 448 Kbps\nChannel(s) : 6 channels\nChannel positions : Front: L C R, Side: L R, LFE\nSampling rate : 48.0 KHz\nBit depth : 16 bits\nCompression mode : Lossy\nStream size : 354 MiB (19%)\nLanguage : English\nDefault : Yes\nForced : No ","torrent":{"xt":"urn:btih:36cfc4ac42133115462f6b1a4b98ec498c9c60c6","amp;dn":"Howard+The+Duck+Special+Edition+%282009%29+DVDRip+x264+AC3+5.1","amp;tr":["udp%3A%2F%2Ftracker.openbittorrent.com%3A80","udp%3A%2F%2Fopen.demonii.com%3A1337","udp%3A%2F%2Ftracker.coppersurfer.tk%3A6969","udp%3A%2F%2Fexodus.desync.com%3A6969"],"infoHash":"36cfc4ac42133115462f6b1a4b98ec498c9c60c6","infoHashBuffer":{"type":"Buffer","data":[54,207,196,172,66,19,49,21,70,47,107,26,75,152,236,73,140,156,96,198]},"announce":[],"urlList":[]}}